<svg xmlns="http://www.w3.org/2000/svg" viewBox="0 0 100 120">
  <defs>
    <linearGradient id="bg" x1="0" y1="0" x2="1" y2="1">
      <stop offset="0%" stop-color="#92400E"/>
      <stop offset="100%" stop-color="#1C0700"/>
    </linearGradient>
  </defs>
  <path d="M50 7 L92 26 L92 65 Q92 100 50 114 Q8 100 8 65 L8 26 Z" fill="url(#bg)" stroke="#D97706" stroke-width="2.5"/>
  <path d="M50 13 L87 29 L87 65 Q87 97 50 109 Q13 97 13 65 L13 29 Z" fill="none" stroke="#FDE68A" stroke-width="0.75" opacity="0.2"/>
  <text x="50" y="39" text-anchor="middle" font-family="Arial, Helvetica, sans-serif" font-size="9" font-weight="900" fill="#FDE68A" letter-spacing="1">BRONCE</text>
  <!-- Crossed swords -->
  <line x1="29" y1="50" x2="71" y2="90" stroke="#D97706" stroke-width="3.5" stroke-linecap="round"/>
  <line x1="71" y1="50" x2="29" y2="90" stroke="#D97706" stroke-width="3.5" stroke-linecap="round"/>
  <!-- Sword tips (top points) -->
  <circle cx="29" cy="50" r="2.5" fill="#F59E0B"/>
  <circle cx="71" cy="50" r="2.5" fill="#F59E0B"/>
  <!-- Sword hilts (horizontal crossguards) -->
  <line x1="22" y1="58" x2="38" y2="56" stroke="#FDE68A" stroke-width="3" stroke-linecap="round"/>
  <line x1="62" y1="56" x2="78" y2="58" stroke="#FDE68A" stroke-width="3" stroke-linecap="round"/>
  <!-- Center gem -->
  <circle cx="50" cy="70" r="5" fill="#92400E" stroke="#F59E0B" stroke-width="2"/>
  <circle cx="50" cy="70" r="2.2" fill="#FDE68A"/>
</svg>
