<svg xmlns="http://www.w3.org/2000/svg" viewBox="0 0 100 120">
  <defs>
    <linearGradient id="bg" x1="0" y1="0" x2="1" y2="1">
      <stop offset="0%" stop-color="#6B7280"/>
      <stop offset="100%" stop-color="#111827"/>
    </linearGradient>
  </defs>
  <path d="M50 7 L92 26 L92 65 Q92 100 50 114 Q8 100 8 65 L8 26 Z" fill="url(#bg)" stroke="#9CA3AF" stroke-width="2.5"/>
  <path d="M50 13 L87 29 L87 65 Q87 97 50 109 Q13 97 13 65 L13 29 Z" fill="none" stroke="#E5E7EB" stroke-width="0.75" opacity="0.2"/>
  <text x="50" y="39" text-anchor="middle" font-family="Arial, Helvetica, sans-serif" font-size="9" font-weight="900" fill="#E5E7EB" letter-spacing="1.5">HIERRO</text>
  <!-- Gear centered at (50, 72) -->
  <g transform="translate(50,72)">
    <rect x="-2.4" y="-17" width="4.8" height="6" rx="1.5" fill="#9CA3AF"/>
    <rect x="-2.4" y="-17" width="4.8" height="6" rx="1.5" fill="#9CA3AF" transform="rotate(45)"/>
    <rect x="-2.4" y="-17" width="4.8" height="6" rx="1.5" fill="#9CA3AF" transform="rotate(90)"/>
    <rect x="-2.4" y="-17" width="4.8" height="6" rx="1.5" fill="#9CA3AF" transform="rotate(135)"/>
    <rect x="-2.4" y="-17" width="4.8" height="6" rx="1.5" fill="#9CA3AF" transform="rotate(180)"/>
    <rect x="-2.4" y="-17" width="4.8" height="6" rx="1.5" fill="#9CA3AF" transform="rotate(225)"/>
    <rect x="-2.4" y="-17" width="4.8" height="6" rx="1.5" fill="#9CA3AF" transform="rotate(270)"/>
    <rect x="-2.4" y="-17" width="4.8" height="6" rx="1.5" fill="#9CA3AF" transform="rotate(315)"/>
    <circle r="11" fill="#374151" stroke="#9CA3AF" stroke-width="2"/>
    <circle r="4" fill="#1F2937" stroke="#9CA3AF" stroke-width="1.5"/>
    <circle r="1.8" fill="#9CA3AF"/>
  </g>
</svg>
