<svg xmlns="http://www.w3.org/2000/svg" viewBox="0 0 100 120">
  <defs>
    <linearGradient id="bg" x1="0" y1="0" x2="1" y2="1">
      <stop offset="0%" stop-color="#7C3AED"/>
      <stop offset="100%" stop-color="#1E0A45"/>
    </linearGradient>
    <linearGradient id="star" x1="0" y1="0" x2="1" y2="1">
      <stop offset="0%" stop-color="#DDD6FE"/>
      <stop offset="100%" stop-color="#8B5CF6"/>
    </linearGradient>
  </defs>
  <path d="M50 7 L92 26 L92 65 Q92 100 50 114 Q8 100 8 65 L8 26 Z" fill="url(#bg)" stroke="#A78BFA" stroke-width="2.5"/>
  <path d="M50 13 L87 29 L87 65 Q87 97 50 109 Q13 97 13 65 L13 29 Z" fill="none" stroke="#EDE9FE" stroke-width="0.75" opacity="0.25"/>
  <text x="50" y="39" text-anchor="middle" font-family="Arial, Helvetica, sans-serif" font-size="9" font-weight="900" fill="#EDE9FE" letter-spacing="1">MÍTICO</text>
  <!-- 8-pointed starburst centered at (50,68), outer r=18, inner r=8 -->
  <!-- Outer: 50,50  62.7,55.3  68,68  62.7,80.7  50,86  37.3,80.7  32,68  37.3,55.3 -->
  <!-- Inner: 53.1,60.6  57.4,64.9  57.4,71.1  53.1,75.4  46.9,75.4  42.6,71.1  42.6,64.9  46.9,60.6 -->
  <polygon
    points="50,50 53.1,60.6 62.7,55.3 57.4,64.9 68,68 57.4,71.1 62.7,80.7 53.1,75.4 50,86 46.9,75.4 37.3,80.7 42.6,71.1 32,68 42.6,64.9 37.3,55.3 46.9,60.6"
    fill="url(#star)" stroke="#A78BFA" stroke-width="1.5"/>
  <!-- Center circle -->
  <circle cx="50" cy="68" r="6" fill="#4C1D95" stroke="#A78BFA" stroke-width="1.5"/>
  <circle cx="50" cy="68" r="3" fill="#EDE9FE" opacity="0.9"/>
</svg>
