<svg xmlns="http://www.w3.org/2000/svg" viewBox="0 0 100 120">
  <defs>
    <linearGradient id="bg" x1="0" y1="0" x2="1" y2="1">
      <stop offset="0%" stop-color="#B45309"/>
      <stop offset="100%" stop-color="#1C0700"/>
    </linearGradient>
  </defs>
  <path d="M50 7 L92 26 L92 65 Q92 100 50 114 Q8 100 8 65 L8 26 Z" fill="url(#bg)" stroke="#F59E0B" stroke-width="2.5"/>
  <path d="M50 13 L87 29 L87 65 Q87 97 50 109 Q13 97 13 65 L13 29 Z" fill="none" stroke="#FDE68A" stroke-width="0.75" opacity="0.25"/>
  <text x="50" y="39" text-anchor="middle" font-family="Arial, Helvetica, sans-serif" font-size="9" font-weight="900" fill="#FDE68A" letter-spacing="3">ORO</text>
  <!-- Crown shape: 3-tipped crown -->
  <path d="M28 90 L72 90 L72 78 L65 60 L57 72 L50 53 L43 72 L35 60 L28 78 Z"
        fill="#92400E" stroke="#F59E0B" stroke-width="2.5" stroke-linejoin="round"/>
  <!-- Base highlight -->
  <rect x="28" y="83" width="44" height="7" rx="1.5" fill="#78350F" stroke="#F59E0B" stroke-width="1.5"/>
  <!-- Tip gems -->
  <circle cx="50" cy="53" r="3.5" fill="#FDE68A" stroke="#F59E0B" stroke-width="1.5"/>
  <circle cx="35" cy="60" r="3" fill="#FDE68A" stroke="#F59E0B" stroke-width="1.5"/>
  <circle cx="65" cy="60" r="3" fill="#FDE68A" stroke="#F59E0B" stroke-width="1.5"/>
  <!-- Base gems -->
  <circle cx="50" cy="86.5" r="3" fill="#FBBF24"/>
  <circle cx="38" cy="86.5" r="2.2" fill="#FBBF24"/>
  <circle cx="62" cy="86.5" r="2.2" fill="#FBBF24"/>
</svg>
