<svg xmlns="http://www.w3.org/2000/svg" viewBox="0 0 100 120">
  <defs>
    <linearGradient id="bg" x1="0" y1="0" x2="1" y2="1">
      <stop offset="0%" stop-color="#64748B"/>
      <stop offset="100%" stop-color="#0F172A"/>
    </linearGradient>
  </defs>
  <path d="M50 7 L92 26 L92 65 Q92 100 50 114 Q8 100 8 65 L8 26 Z" fill="url(#bg)" stroke="#CBD5E1" stroke-width="2.5"/>
  <path d="M50 13 L87 29 L87 65 Q87 97 50 109 Q13 97 13 65 L13 29 Z" fill="none" stroke="#E2E8F0" stroke-width="0.75" opacity="0.25"/>
  <text x="50" y="39" text-anchor="middle" font-family="Arial, Helvetica, sans-serif" font-size="9" font-weight="900" fill="#F1F5F9" letter-spacing="2">PLATA</text>
  <!-- 5-pointed star centered at (50, 65), outer r=17, inner r=7 -->
  <polygon
    points="50,48 54.1,59.3 65.2,60.1 56.7,67.2 59.4,77.9 50,72 40.6,77.9 43.3,67.2 34.8,60.1 45.9,59.3"
    fill="#94A3B8" stroke="#E2E8F0" stroke-width="1.5"/>
  <!-- Star center shine -->
  <circle cx="50" cy="65" r="3.5" fill="#F1F5F9" opacity="0.6"/>
</svg>
