<svg xmlns="http://www.w3.org/2000/svg" viewBox="0 0 100 120">
  <defs>
    <linearGradient id="bg" x1="0" y1="0" x2="1" y2="1">
      <stop offset="0%" stop-color="#0E7490"/>
      <stop offset="100%" stop-color="#042F2E"/>
    </linearGradient>
    <linearGradient id="gem" x1="0" y1="0" x2="1" y2="1">
      <stop offset="0%" stop-color="#A5F3FC"/>
      <stop offset="100%" stop-color="#0891B2"/>
    </linearGradient>
  </defs>
  <path d="M50 7 L92 26 L92 65 Q92 100 50 114 Q8 100 8 65 L8 26 Z" fill="url(#bg)" stroke="#22D3EE" stroke-width="2.5"/>
  <path d="M50 13 L87 29 L87 65 Q87 97 50 109 Q13 97 13 65 L13 29 Z" fill="none" stroke="#CFFAFE" stroke-width="0.75" opacity="0.25"/>
  <text x="50" y="39" text-anchor="middle" font-family="Arial, Helvetica, sans-serif" font-size="8.5" font-weight="900" fill="#CFFAFE" letter-spacing="0.8">PLATINO</text>
  <!-- Diamond gem centered at (50,68): top(50,50) right(68,68) bottom(50,87) left(32,68) -->
  <polygon points="50,50 68,68 50,87 32,68" fill="url(#gem)" stroke="#22D3EE" stroke-width="2.5"/>
  <!-- Gem facet lines -->
  <polyline points="50,50 57,61 50,87" fill="none" stroke="#CFFAFE" stroke-width="0.75" opacity="0.5"/>
  <polyline points="50,50 43,61 50,87" fill="none" stroke="#CFFAFE" stroke-width="0.75" opacity="0.5"/>
  <line x1="32" y1="68" x2="68" y2="68" stroke="#CFFAFE" stroke-width="0.75" opacity="0.4"/>
  <!-- Top facet highlight -->
  <polygon points="50,50 57,61 43,61" fill="#CFFAFE" opacity="0.3"/>
  <!-- Center shine -->
  <circle cx="50" cy="68" r="2.5" fill="#CFFAFE" opacity="0.8"/>
</svg>
